<svg width="30" height="30" viewBox="0 0 30 30" fill="none" xmlns="http://www.w3.org/2000/svg">
<g clip-path="url(#clip0)">
<path d="M15.0068 8.26147C10.7479 8.26147 7.31264 11.2673 7.31264 14.9939C7.31264 18.7205 10.7479 21.7263 15.0068 21.7263C19.2658 21.7263 22.701 18.7205 22.701 14.9939C22.701 11.2673 19.2658 8.26147 15.0068 8.26147ZM15.0068 19.3708C12.2546 19.3708 10.0046 17.408 10.0046 14.9939C10.0046 12.5798 12.2479 10.6169 15.0068 10.6169C17.7658 10.6169 20.0091 12.5798 20.0091 14.9939C20.0091 17.408 17.7591 19.3708 15.0068 19.3708ZM24.8104 7.98608C24.8104 8.85913 24.0068 9.5564 23.0158 9.5564C22.018 9.5564 21.2211 8.85327 21.2211 7.98608C21.2211 7.1189 22.0247 6.41577 23.0158 6.41577C24.0068 6.41577 24.8104 7.1189 24.8104 7.98608ZM29.9064 9.57983C29.7925 7.47632 29.2434 5.61304 27.4823 4.07788C25.7278 2.54272 23.5983 2.06226 21.1943 1.95679C18.7167 1.83374 11.2903 1.83374 8.81264 1.95679C6.41532 2.0564 4.28585 2.53687 2.52469 4.07202C0.763532 5.60718 0.221122 7.47046 0.100586 9.57397C-0.040039 11.7419 -0.040039 18.24 0.100586 20.408C0.214425 22.5115 0.763532 24.3748 2.52469 25.9099C4.28585 27.4451 6.40862 27.9255 8.81264 28.031C11.2903 28.1541 18.7167 28.1541 21.1943 28.031C23.5983 27.9314 25.7278 27.4509 27.4823 25.9099C29.2367 24.3748 29.7858 22.5115 29.9064 20.408C30.047 18.24 30.047 11.7478 29.9064 9.57983ZM26.7055 22.7341C26.1832 23.8826 25.172 24.7673 23.8528 25.2302C21.8774 25.9158 17.1899 25.7576 15.0068 25.7576C12.8238 25.7576 8.1296 25.9099 6.16085 25.2302C4.84835 24.7732 3.83719 23.8884 3.30817 22.7341C2.52469 21.0056 2.7055 16.9041 2.7055 14.9939C2.7055 13.0837 2.53139 8.97632 3.30817 7.25366C3.83049 6.10522 4.84165 5.22046 6.16085 4.75757C8.1363 4.07202 12.8238 4.23022 15.0068 4.23022C17.1899 4.23022 21.8841 4.07788 23.8528 4.75757C25.1653 5.2146 26.1765 6.09937 26.7055 7.25366C27.489 8.98218 27.3082 13.0837 27.3082 14.9939C27.3082 16.9041 27.489 21.0115 26.7055 22.7341Z" fill="black"/>
</g>
<defs>
<clipPath id="clip0">
<rect width="30" height="30" fill="white"/>
</clipPath>
</defs>
</svg>
