<svg width="30" height="28" viewBox="0 0 30 28" fill="none" xmlns="http://www.w3.org/2000/svg">
<path d="M15.0067 7.26172C10.7478 7.26172 7.3125 10.2676 7.3125 13.9941C7.3125 17.7207 10.7478 20.7266 15.0067 20.7266C19.2656 20.7266 22.7009 17.7207 22.7009 13.9941C22.7009 10.2676 19.2656 7.26172 15.0067 7.26172ZM15.0067 18.3711C12.2545 18.3711 10.0045 16.4082 10.0045 13.9941C10.0045 11.5801 12.2478 9.61719 15.0067 9.61719C17.7656 9.61719 20.0089 11.5801 20.0089 13.9941C20.0089 16.4082 17.7589 18.3711 15.0067 18.3711ZM24.8103 6.98633C24.8103 7.85938 24.0067 8.55664 23.0156 8.55664C22.0179 8.55664 21.221 7.85352 21.221 6.98633C21.221 6.11914 22.0245 5.41602 23.0156 5.41602C24.0067 5.41602 24.8103 6.11914 24.8103 6.98633ZM29.9062 8.58008C29.7924 6.47656 29.2433 4.61328 27.4821 3.07812C25.7277 1.54297 23.5982 1.0625 21.1942 0.957031C18.7165 0.833984 11.2902 0.833984 8.8125 0.957031C6.41518 1.05664 4.28571 1.53711 2.52455 3.07227C0.763395 4.60742 0.220984 6.4707 0.100449 8.57422C-0.0401764 10.7422 -0.0401764 17.2402 0.100449 19.4082C0.214288 21.5117 0.763395 23.375 2.52455 24.9102C4.28571 26.4453 6.40848 26.9258 8.8125 27.0312C11.2902 27.1543 18.7165 27.1543 21.1942 27.0312C23.5982 26.9316 25.7277 26.4512 27.4821 24.9102C29.2366 23.375 29.7857 21.5117 29.9062 19.4082C30.0469 17.2402 30.0469 10.748 29.9062 8.58008ZM26.7053 21.7344C26.183 22.8828 25.1719 23.7676 23.8527 24.2305C21.8772 24.916 17.1897 24.7578 15.0067 24.7578C12.8237 24.7578 8.12946 24.9102 6.16071 24.2305C4.84821 23.7734 3.83705 22.8887 3.30804 21.7344C2.52455 20.0059 2.70536 15.9043 2.70536 13.9941C2.70536 12.084 2.53125 7.97656 3.30804 6.25391C3.83036 5.10547 4.84152 4.2207 6.16071 3.75781C8.13616 3.07227 12.8237 3.23047 15.0067 3.23047C17.1897 3.23047 21.8839 3.07812 23.8527 3.75781C25.1652 4.21484 26.1763 5.09961 26.7053 6.25391C27.4888 7.98242 27.308 12.084 27.308 13.9941C27.308 15.9043 27.4888 20.0117 26.7053 21.7344Z" fill="white"/>
</svg>
