<svg width="20" height="20" viewBox="0 0 20 20" fill="none" xmlns="http://www.w3.org/2000/svg">
<path d="M9.99519 0.593806C10.0337 0.7774 10.7692 4.28521 10.7692 5.62506C10.7692 7.66802 9.43269 9.12506 7.45673 9.71099L8.07692 19.0118C8.11058 19.5469 7.58654 20.0001 6.92308 20.0001H3.84615C3.1875 20.0001 2.65865 19.5508 2.69231 19.0118L3.3125 9.71099C1.33173 9.12506 0 7.66412 0 5.62506C0 4.28131 0.735577 0.7774 0.774038 0.593806C0.927885 -0.199163 2.95192 -0.210882 3.07692 0.636775V6.1524C3.13942 6.28521 3.80288 6.2774 3.84615 6.1524C3.91346 5.16412 4.22596 0.7149 4.23077 0.613337C4.38942 -0.199163 6.37981 -0.199163 6.53365 0.613337C6.54327 0.718806 6.85096 5.16412 6.91827 6.1524C6.96154 6.2774 7.62981 6.28521 7.6875 6.1524V0.636775C7.8125 -0.206975 9.84135 -0.199163 9.99519 0.593806ZM15.726 11.754L15.0048 18.9844C14.9471 19.5313 15.4808 20.0001 16.1538 20.0001H18.8462C19.4856 20.0001 20 19.5821 20 19.0626V0.937556C20 0.421931 19.4856 5.58303e-05 18.8462 5.58303e-05C14.8798 5.58303e-05 8.20192 6.97271 15.726 11.754Z" fill="#8F503F"/>
</svg>
