<svg width="18" height="20" viewBox="0 0 18 20" fill="none" xmlns="http://www.w3.org/2000/svg">
<g clip-path="url(#clip0)">
<path d="M11.0452 6.25H3.95489C3.2062 6.24998 2.48457 6.48324 1.93173 6.90397C1.37889 7.3247 1.03481 7.90248 0.967075 8.52383L0.0126991 17.2738C-0.0250098 17.6198 0.024197 17.9684 0.157182 18.2976C0.290166 18.6268 0.504011 18.9293 0.785079 19.1858C1.06615 19.4423 1.40827 19.6472 1.78963 19.7874C2.17099 19.9275 2.58323 20 3.00005 20H12.0001C12.4169 20 12.8292 19.9276 13.2106 19.7875C13.592 19.6473 13.9342 19.4424 14.2153 19.1859C14.4964 18.9294 14.7103 18.6269 14.8433 18.2977C14.9764 17.9685 15.0256 17.6198 14.9879 17.2738L14.0335 8.52383C13.9658 7.90242 13.6216 7.32457 13.0687 6.90384C12.5157 6.4831 11.794 6.24988 11.0452 6.25ZM7.50005 16.25C5.94755 16.25 4.68755 15.2215 4.68755 13.9551C4.68755 12.9785 6.36098 11.007 7.12505 10.1555C7.16878 10.107 7.22546 10.0677 7.29059 10.0406C7.35572 10.0136 7.42751 9.99953 7.50028 9.99961C7.57305 9.99968 7.6448 10.0139 7.70985 10.0411C7.7749 10.0683 7.83146 10.1077 7.87505 10.1562C8.64052 11.0078 10.3125 12.9793 10.3125 13.9559C10.3125 15.2215 9.05255 16.25 7.50005 16.25ZM17.7802 3.67422L15.7501 1.98203C15.1875 1.51331 14.4245 1.25 13.629 1.25H10.5001C10.5001 0.918479 10.342 0.600537 10.0607 0.366117C9.7794 0.131696 9.39787 0 9.00005 0L6.00005 0C5.60222 0 5.22069 0.131696 4.93939 0.366117C4.65808 0.600537 4.50005 0.918479 4.50005 1.25V5H10.5001V3.75H13.629L15.6591 5.4418C15.7288 5.49985 15.8115 5.5459 15.9025 5.57732C15.9935 5.60874 16.091 5.62491 16.1895 5.62491C16.288 5.62491 16.3856 5.60874 16.4766 5.57732C16.5676 5.5459 16.6503 5.49985 16.7199 5.4418L17.7802 4.5582C17.8499 4.50016 17.9051 4.43126 17.9428 4.35542C17.9805 4.27958 17.9999 4.1983 17.9999 4.11621C17.9999 4.03412 17.9805 3.95284 17.9428 3.877C17.9051 3.80116 17.8499 3.73226 17.7802 3.67422Z" fill="#8F503F"/>
</g>
<defs>
<clipPath id="clip0">
<rect width="18" height="20" fill="white"/>
</clipPath>
</defs>
</svg>
