<svg width="25" height="18" viewBox="0 0 25 18" fill="none" xmlns="http://www.w3.org/2000/svg">
<g clip-path="url(#clip0)">
<path d="M24.802 5.445C17.8813 -0.316055 7.11762 -0.313945 0.199649 5.445C-0.0605069 5.66156 -0.065585 6.02824 0.185977 6.25289L1.52348 7.44715C1.76332 7.6616 2.14926 7.66617 2.39848 7.46051C8.09848 2.76082 16.9024 2.75977 22.6035 7.46051C22.8528 7.66617 23.2387 7.66125 23.4785 7.44715L24.816 6.25289C25.0672 6.02824 25.0621 5.66156 24.802 5.445ZM12.5008 12.375C11.12 12.375 10.0008 13.3822 10.0008 14.625C10.0008 15.8678 11.12 16.875 12.5008 16.875C13.8817 16.875 15.0008 15.8678 15.0008 14.625C15.0008 13.3822 13.8817 12.375 12.5008 12.375ZM20.4176 9.43629C15.9153 5.85281 9.08129 5.85668 4.58402 9.43629C4.31449 9.65074 4.3059 10.023 4.56176 10.2502L5.90707 11.4451C6.14144 11.6532 6.51879 11.6673 6.7684 11.4732C10.0477 8.92195 14.9614 8.92758 18.2328 11.4732C18.4825 11.6673 18.8598 11.6536 19.0942 11.4451L20.4395 10.2502C20.6957 10.023 20.6868 9.65039 20.4176 9.43629Z" fill="#8F503F"/>
</g>
<defs>
<clipPath id="clip0">
<rect width="25" height="18" fill="white"/>
</clipPath>
</defs>
</svg>
