<svg width="50" height="50" viewBox="0 0 50 50" fill="none" xmlns="http://www.w3.org/2000/svg">
<path d="M26.5625 12.1094C26.3553 12.1094 26.1566 12.0271 26.0101 11.8806C25.8636 11.734 25.7812 11.5353 25.7812 11.3281C25.7812 11.1209 25.8636 10.9222 26.0101 10.7757C26.1566 10.6292 26.3553 10.5469 26.5625 10.5469C27.1841 10.5469 27.7802 10.2999 28.2198 9.86041C28.6593 9.42087 28.9062 8.82473 28.9062 8.20312C28.9062 7.58152 28.6593 6.98538 28.2198 6.54584C27.7802 6.1063 27.1841 5.85938 26.5625 5.85938C26.3553 5.85938 26.1566 5.77706 26.0101 5.63055C25.8636 5.48404 25.7812 5.28533 25.7812 5.07812C25.7812 4.87092 25.8636 4.67221 26.0101 4.5257C26.1566 4.37919 26.3553 4.29688 26.5625 4.29688C27.5985 4.29688 28.5921 4.70843 29.3246 5.44099C30.0572 6.17355 30.4688 7.16712 30.4688 8.20312C30.4688 9.23913 30.0572 10.2327 29.3246 10.9653C28.5921 11.6978 27.5985 12.1094 26.5625 12.1094Z" fill="#AAC3D7"/>
<path d="M10.9375 12.1094C10.7303 12.1094 10.5316 12.0271 10.3851 11.8806C10.2386 11.734 10.1562 11.5353 10.1562 11.3281C10.1562 11.1209 10.2386 10.9222 10.3851 10.7757C10.5316 10.6292 10.7303 10.5469 10.9375 10.5469C11.5591 10.5469 12.1552 10.2999 12.5948 9.86041C13.0343 9.42087 13.2812 8.82473 13.2812 8.20312C13.2812 7.58152 13.0343 6.98538 12.5948 6.54584C12.1552 6.1063 11.5591 5.85938 10.9375 5.85938C10.7303 5.85938 10.5316 5.77706 10.3851 5.63055C10.2386 5.48404 10.1562 5.28533 10.1562 5.07812C10.1562 4.87092 10.2386 4.67221 10.3851 4.5257C10.5316 4.37919 10.7303 4.29688 10.9375 4.29688C11.9735 4.29688 12.9671 4.70843 13.6996 5.44099C14.4322 6.17355 14.8438 7.16712 14.8438 8.20312C14.8438 9.23913 14.4322 10.2327 13.6996 10.9653C12.9671 11.6978 11.9735 12.1094 10.9375 12.1094Z" fill="#AAC3D7"/>
<path d="M1.5625 14.4531H39.0625V39.4531C39.0625 40.2819 38.7333 41.0768 38.1472 41.6628C37.5612 42.2489 36.7663 42.5781 35.9375 42.5781H4.6875C3.8587 42.5781 3.06384 42.2489 2.47779 41.6628C1.89174 41.0768 1.5625 40.2819 1.5625 39.4531V14.4531Z" fill="#AAC3D7"/>
<path d="M1.5625 14.4531H34.375V39.4531C34.375 40.2819 34.0458 41.0768 33.4597 41.6628C32.8737 42.2489 32.0788 42.5781 31.25 42.5781H4.6875C3.8587 42.5781 3.06384 42.2489 2.47779 41.6628C1.89174 41.0768 1.5625 40.2819 1.5625 39.4531V14.4531Z" fill="white" fill-opacity="0.75"/>
<path d="M4.6875 8.20312H35.9375C36.7663 8.20313 37.5612 8.53236 38.1472 9.11842C38.7333 9.70447 39.0625 10.4993 39.0625 11.3281V14.4531H1.5625V11.3281C1.5625 10.4993 1.89174 9.70447 2.47779 9.11842C3.06384 8.53236 3.8587 8.20313 4.6875 8.20312Z" fill="#8F503F"/>
<path d="M4.6875 8.20312H31.25C32.0788 8.20313 32.8737 8.53236 33.4597 9.11842C34.0458 9.70447 34.375 10.4993 34.375 11.3281V14.4531H1.5625V11.3281C1.5625 10.4993 1.89174 9.70447 2.47779 9.11842C3.06384 8.53236 3.8587 8.20313 4.6875 8.20312Z" fill="#8F503F"/>
<path d="M10.9375 12.1094C9.9015 12.1094 8.90793 11.6978 8.17536 10.9653C7.4428 10.2327 7.03125 9.23913 7.03125 8.20312C7.03125 7.16712 7.4428 6.17355 8.17536 5.44099C8.90793 4.70843 9.9015 4.29688 10.9375 4.29688C11.1447 4.29687 11.3434 4.37919 11.4899 4.5257C11.6364 4.67221 11.7188 4.87092 11.7188 5.07812C11.7188 5.28533 11.6364 5.48404 11.4899 5.63055C11.3434 5.77706 11.1447 5.85938 10.9375 5.85938C10.3159 5.85938 9.71976 6.1063 9.28022 6.54584C8.84068 6.98538 8.59375 7.58152 8.59375 8.20312C8.59375 8.82473 8.84068 9.42087 9.28022 9.86041C9.71976 10.2999 10.3159 10.5469 10.9375 10.5469C11.1447 10.5469 11.3434 10.6292 11.4899 10.7757C11.6364 10.9222 11.7188 11.1209 11.7188 11.3281C11.7188 11.5353 11.6364 11.734 11.4899 11.8806C11.3434 12.0271 11.1447 12.1094 10.9375 12.1094Z" fill="white" fill-opacity="0.75"/>
<path d="M26.5625 12.1094C25.5265 12.1094 24.5329 11.6978 23.8004 10.9653C23.0678 10.2327 22.6562 9.23913 22.6562 8.20312C22.6562 7.16712 23.0678 6.17355 23.8004 5.44099C24.5329 4.70843 25.5265 4.29688 26.5625 4.29688C26.7697 4.29687 26.9684 4.37919 27.1149 4.5257C27.2614 4.67221 27.3438 4.87092 27.3438 5.07812C27.3438 5.28533 27.2614 5.48404 27.1149 5.63055C26.9684 5.77706 26.7697 5.85938 26.5625 5.85938C25.9409 5.85938 25.3448 6.1063 24.9052 6.54584C24.4657 6.98538 24.2188 7.58152 24.2188 8.20312C24.2188 8.82473 24.4657 9.42087 24.9052 9.86041C25.3448 10.2999 25.9409 10.5469 26.5625 10.5469C26.7697 10.5469 26.9684 10.6292 27.1149 10.7757C27.2614 10.9222 27.3438 11.1209 27.3438 11.3281C27.3438 11.5353 27.2614 11.734 27.1149 11.8806C26.9684 12.0271 26.7697 12.1094 26.5625 12.1094Z" fill="white" fill-opacity="0.75"/>
<path d="M13.9324 39.4531C13.2074 39.4523 12.5124 39.1639 11.9998 38.6513C11.4872 38.1387 11.1988 37.4437 11.198 36.7188V32.8125C11.198 32.0873 11.4861 31.3918 11.9989 30.879C12.5117 30.3662 13.2072 30.0781 13.9324 30.0781C14.6576 30.0781 15.3531 30.3662 15.8659 30.879C16.3787 31.3918 16.6668 32.0873 16.6668 32.8125V36.7188C16.6659 37.4437 16.3776 38.1387 15.865 38.6513C15.3523 39.1639 14.6573 39.4523 13.9324 39.4531ZM13.9324 31.6406C13.6217 31.641 13.3238 31.7645 13.1041 31.9842C12.8844 32.2039 12.7608 32.5018 12.7605 32.8125V36.7188C12.7605 37.0296 12.884 37.3276 13.1037 37.5474C13.3235 37.7672 13.6216 37.8906 13.9324 37.8906C14.2432 37.8906 14.5412 37.7672 14.761 37.5474C14.9808 37.3276 15.1043 37.0296 15.1043 36.7188V32.8125C15.1039 32.5018 14.9803 32.2039 14.7606 31.9842C14.541 31.7645 14.2431 31.641 13.9324 31.6406Z" fill="#8F503F"/>
<path d="M6.90112 17.5781H4.948C4.7408 17.5781 4.54208 17.6604 4.39557 17.8069C4.24906 17.9535 4.16675 18.1522 4.16675 18.3594V26.1719C4.16675 26.3791 4.24906 26.5778 4.39557 26.7243C4.54208 26.8708 4.7408 26.9531 4.948 26.9531H6.90112C7.44443 26.9534 7.97548 26.7917 8.42647 26.4887C8.87746 26.1858 9.22792 25.7553 9.4331 25.2522C9.63828 24.7491 9.68887 24.1963 9.57841 23.6643C9.46794 23.1324 9.20145 22.6454 8.81294 22.2656C9.20145 21.8858 9.46794 21.3989 9.57841 20.8669C9.68887 20.335 9.63828 19.7821 9.4331 19.2791C9.22792 18.776 8.87746 18.3455 8.42647 18.0425C7.97548 17.7396 7.44443 17.5779 6.90112 17.5781ZM6.90112 25.3906H5.72925V23.0469H6.90112C7.21192 23.0469 7.50999 23.1703 7.72976 23.3901C7.94953 23.6099 8.073 23.9079 8.073 24.2187C8.073 24.5296 7.94953 24.8276 7.72976 25.0474C7.50999 25.2672 7.21192 25.3906 6.90112 25.3906ZM6.90112 21.4844H5.72925V19.1406H6.90112C7.21192 19.1406 7.50999 19.2641 7.72976 19.4839C7.94953 19.7036 8.073 20.0017 8.073 20.3125C8.073 20.6233 7.94953 20.9214 7.72976 21.1411C7.50999 21.3609 7.21192 21.4844 6.90112 21.4844Z" fill="#333333" fill-opacity="0.8"/>
<path d="M13.9324 17.5781C13.2074 17.579 12.5124 17.8673 11.9998 18.3799C11.4872 18.8925 11.1988 19.5876 11.198 20.3125V24.2188C11.198 24.944 11.4861 25.6394 11.9989 26.1522C12.5117 26.665 13.2072 26.9531 13.9324 26.9531C14.6576 26.9531 15.3531 26.665 15.8659 26.1522C16.3787 25.6394 16.6668 24.944 16.6668 24.2188V20.3125C16.6659 19.5876 16.3776 18.8925 15.865 18.3799C15.3523 17.8673 14.6573 17.579 13.9324 17.5781ZM15.1043 24.2188C15.1043 24.5296 14.9808 24.8276 14.761 25.0474C14.5412 25.2672 14.2432 25.3906 13.9324 25.3906C13.6216 25.3906 13.3235 25.2672 13.1037 25.0474C12.884 24.8276 12.7605 24.5296 12.7605 24.2188V20.3125C12.7605 20.0017 12.884 19.7036 13.1037 19.4839C13.3235 19.2641 13.6216 19.1406 13.9324 19.1406C14.2432 19.1406 14.5412 19.2641 14.761 19.4839C14.9808 19.7036 15.1043 20.0017 15.1043 20.3125V24.2188Z" fill="#333333" fill-opacity="0.8"/>
<path d="M20.9636 17.5781C20.2387 17.579 19.5437 17.8673 19.031 18.3799C18.5184 18.8925 18.2301 19.5876 18.2292 20.3125V24.2188C18.2292 24.944 18.5173 25.6394 19.0301 26.1522C19.5429 26.665 20.2384 26.9531 20.9636 26.9531C21.6888 26.9531 22.3843 26.665 22.8971 26.1522C23.4099 25.6394 23.698 24.944 23.698 24.2188V20.3125C23.6972 19.5876 23.4088 18.8925 22.8962 18.3799C22.3836 17.8673 21.6886 17.579 20.9636 17.5781ZM22.1355 24.2188C22.1355 24.5296 22.012 24.8276 21.7923 25.0474C21.5725 25.2672 21.2744 25.3906 20.9636 25.3906C20.6528 25.3906 20.3548 25.2672 20.135 25.0474C19.9152 24.8276 19.7917 24.5296 19.7917 24.2188V20.3125C19.7917 20.0017 19.9152 19.7036 20.135 19.4839C20.3548 19.2641 20.6528 19.1406 20.9636 19.1406C21.2744 19.1406 21.5725 19.2641 21.7923 19.4839C22.012 19.7036 22.1355 20.0017 22.1355 20.3125V24.2188Z" fill="#333333" fill-opacity="0.8"/>
<path d="M30.7292 19.9219V18.3594C30.7292 18.1522 30.6469 17.9535 30.5004 17.8069C30.3539 17.6604 30.1552 17.5781 29.948 17.5781C29.7408 17.5781 29.5421 17.6604 29.3956 17.8069C29.2491 17.9535 29.1667 18.1522 29.1667 18.3594V19.9219C29.1663 20.3361 29.0015 20.7333 28.7086 21.0262C28.4157 21.3191 28.0185 21.4839 27.6042 21.4844H26.823V18.3594C26.823 18.1522 26.7407 17.9535 26.5942 17.8069C26.4477 17.6604 26.2489 17.5781 26.0417 17.5781C25.8345 17.5781 25.6358 17.6604 25.4893 17.8069C25.3428 17.9535 25.2605 18.1522 25.2605 18.3594V26.1719C25.2605 26.3791 25.3428 26.5778 25.4893 26.7243C25.6358 26.8708 25.8345 26.9531 26.0417 26.9531C26.2489 26.9531 26.4477 26.8708 26.5942 26.7243C26.7407 26.5778 26.823 26.3791 26.823 26.1719V23.0469H27.6042C28.0185 23.0473 28.4157 23.2121 28.7086 23.505C29.0015 23.798 29.1663 24.1951 29.1667 24.6094V26.1719C29.1667 26.3791 29.2491 26.5778 29.3956 26.7243C29.5421 26.8708 29.7408 26.9531 29.948 26.9531C30.1552 26.9531 30.3539 26.8708 30.5004 26.7243C30.6469 26.5778 30.7292 26.3791 30.7292 26.1719V24.6094C30.7294 24.1658 30.6349 23.7273 30.4521 23.3231C30.2693 22.919 30.0024 22.5584 29.6692 22.2656C30.0024 21.9728 30.2693 21.6123 30.4521 21.2081C30.6349 20.804 30.7294 20.3655 30.7292 19.9219Z" fill="#333333" fill-opacity="0.8"/>
<path d="M8.85405 39.4531C8.709 39.4531 8.56682 39.4126 8.44345 39.3364C8.32007 39.2601 8.22038 39.1509 8.15552 39.0212L5.72925 34.1687V38.6719C5.72925 38.8791 5.64694 39.0778 5.50043 39.2243C5.35391 39.3708 5.1552 39.4531 4.948 39.4531C4.7408 39.4531 4.54208 39.3708 4.39557 39.2243C4.24906 39.0778 4.16675 38.8791 4.16675 38.6719V30.8594C4.16676 30.6834 4.22619 30.5126 4.3354 30.3746C4.44461 30.2366 4.59721 30.1395 4.76849 30.0991C4.93976 30.0586 5.11966 30.0772 5.27906 30.1518C5.43846 30.2264 5.56801 30.3526 5.64673 30.51L8.073 35.3625V30.8594C8.073 30.6522 8.15531 30.4535 8.30182 30.3069C8.44833 30.1604 8.64705 30.0781 8.85425 30.0781C9.06145 30.0781 9.26016 30.1604 9.40667 30.3069C9.55319 30.4535 9.6355 30.6522 9.6355 30.8594V38.6719C9.6355 38.8791 9.55319 39.0778 9.40667 39.2243C9.26016 39.3708 9.06145 39.4531 8.85425 39.4531H8.85405Z" fill="#8F503F"/>
<path d="M23.698 39.4531C23.1211 39.4536 22.5645 39.2405 22.1355 38.8549C21.7985 39.157 21.3813 39.355 20.9342 39.425C20.4871 39.495 20.0293 39.434 19.6161 39.2493C19.2029 39.0647 18.8521 38.7644 18.606 38.3846C18.3599 38.0048 18.229 37.5619 18.2292 37.1094V30.8594C18.2292 30.6522 18.3116 30.4535 18.4581 30.3069C18.6046 30.1604 18.8033 30.0781 19.0105 30.0781C19.2177 30.0781 19.4164 30.1604 19.5629 30.3069C19.7094 30.4535 19.7917 30.6522 19.7917 30.8594V37.1094C19.7917 37.3166 19.8741 37.5153 20.0206 37.6618C20.1671 37.8083 20.3658 37.8906 20.573 37.8906C20.7802 37.8906 20.9789 37.8083 21.1254 37.6618C21.2719 37.5153 21.3542 37.3166 21.3542 37.1094V30.8594C21.3542 30.6522 21.4366 30.4535 21.5831 30.3069C21.7296 30.1604 21.9283 30.0781 22.1355 30.0781C22.3427 30.0781 22.5414 30.1604 22.6879 30.3069C22.8344 30.4535 22.9167 30.6522 22.9167 30.8594V37.1094C22.9167 37.3166 22.999 37.5153 23.1456 37.6618C23.2921 37.8083 23.4908 37.8906 23.698 37.8906C23.9052 37.8906 24.1039 37.8083 24.2504 37.6618C24.3969 37.5153 24.4792 37.3166 24.4792 37.1094V30.8594C24.4792 30.6522 24.5615 30.4535 24.7081 30.3069C24.8546 30.1604 25.0533 30.0781 25.2605 30.0781C25.4677 30.0781 25.6664 30.1604 25.8129 30.3069C25.9594 30.4535 26.0417 30.6522 26.0417 30.8594V37.1094C26.041 37.7308 25.7939 38.3265 25.3545 38.7659C24.9151 39.2053 24.3194 39.4524 23.698 39.4531Z" fill="#8F503F"/>
<path d="M38.2812 45.7031C43.8904 45.7031 48.4375 41.156 48.4375 35.5469C48.4375 29.9377 43.8904 25.3906 38.2812 25.3906C32.6721 25.3906 28.125 29.9377 28.125 35.5469C28.125 41.156 32.6721 45.7031 38.2812 45.7031Z" fill="#8F503F"/>
<path d="M36.7186 40.2343C36.5134 40.2346 36.3102 40.1943 36.1206 40.1158C35.931 40.0373 35.7588 39.922 35.6138 39.7767L32.4889 36.6517C32.1988 36.3581 32.0366 35.9616 32.0378 35.5489C32.0391 35.1361 32.2036 34.7406 32.4954 34.4487C32.7873 34.1569 33.1828 33.9923 33.5955 33.9911C34.0083 33.9898 34.4048 34.1519 34.6984 34.442L36.7186 36.4622L41.7337 31.4472C41.8783 31.3 42.0506 31.1829 42.2408 31.1026C42.4309 31.0224 42.635 30.9806 42.8414 30.9796C43.0478 30.9787 43.2523 31.0187 43.4431 31.0972C43.634 31.1758 43.8074 31.2914 43.9533 31.4373C44.0992 31.5832 44.2148 31.7566 44.2933 31.9475C44.3719 32.1383 44.4118 32.3428 44.4109 32.5492C44.41 32.7556 44.3681 32.9597 44.2879 33.1498C44.2076 33.3399 44.0905 33.5123 43.9432 33.6569L37.8234 39.7767C37.6785 39.922 37.5063 40.0373 37.3167 40.1158C37.1271 40.1943 36.9239 40.2346 36.7186 40.2343Z" fill="white" fill-opacity="0.75"/>
</svg>
