<svg width="25" height="23" viewBox="0 0 25 23" fill="none" xmlns="http://www.w3.org/2000/svg">
<path d="M22.3827 2.13974C19.5604 -0.233305 15.2001 0.12314 12.4999 2.87216C9.79969 0.12314 5.43934 -0.238188 2.61707 2.13974C-1.0548 5.23056 -0.517694 10.2696 2.09949 12.9405L10.6639 21.6661C11.1522 22.1642 11.8065 22.4425 12.4999 22.4425C13.1981 22.4425 13.8475 22.169 14.3358 21.671L22.9003 12.9454C25.5126 10.2745 26.0595 5.23545 22.3827 2.13974ZM21.2303 11.295L12.6659 20.0206C12.5487 20.1378 12.4511 20.1378 12.3339 20.0206L3.76941 11.295C1.98719 9.47861 1.62586 6.04111 4.12586 3.93662C6.02527 2.33994 8.95496 2.57919 10.7909 4.44931L12.4999 6.19248L14.2089 4.44931C16.0546 2.56943 18.9843 2.33994 20.8739 3.93173C23.369 6.03623 22.9979 9.49326 21.2303 11.295Z" fill="#8F503F"/>
</svg>
