<svg width="40" height="40" viewBox="0 0 40 40" fill="none" xmlns="http://www.w3.org/2000/svg">
<path d="M39.2422 13.2083C39.5469 12.8854 40 13.1875 40 13.6979V35C40 37.7604 38.3203 40 36.25 40H3.75C1.67969 40 0 37.7604 0 35V13.7083C0 13.1875 0.445312 12.8958 0.757812 13.2187C2.50781 15.0312 4.82812 17.3333 12.7969 25.0521C14.4453 26.6562 17.2266 30.0312 20 30.0104C22.7891 30.0417 25.625 26.5937 27.2109 25.0521C35.1797 17.3333 37.4922 15.0208 39.2422 13.2083ZM20 26.6667C21.8125 26.7083 24.4219 23.625 25.7344 22.3542C36.1016 12.3229 36.8906 11.4479 39.2812 8.94792C39.7344 8.47917 40 7.75 40 6.97917V5C40 2.23958 38.3203 0 36.25 0H3.75C1.67969 0 0 2.23958 0 5V6.97917C0 7.75 0.265625 8.46875 0.71875 8.94792C3.10938 11.4375 3.89844 12.3229 14.2656 22.3542C15.5781 23.625 18.1875 26.7083 20 26.6667Z" fill="#8F503F"/>
</svg>
