<svg width="40" height="40" viewBox="0 0 40 40" fill="none" xmlns="http://www.w3.org/2000/svg">
<path d="M34 0H6C2.6875 0 0 1.67969 0 3.75V36.25C0 38.3203 2.6875 40 6 40H34C37.3125 40 40 38.3203 40 36.25V3.75C40 1.67969 37.3125 0 34 0ZM20 37.5C17.7875 37.5 16 36.3828 16 35C16 33.6172 17.7875 32.5 20 32.5C22.2125 32.5 24 33.6172 24 35C24 36.3828 22.2125 37.5 20 37.5ZM34 29.0625C34 29.5781 33.325 30 32.5 30H7.5C6.675 30 6 29.5781 6 29.0625V4.6875C6 4.17188 6.675 3.75 7.5 3.75H32.5C33.325 3.75 34 4.17188 34 4.6875V29.0625Z" fill="#8F503F"/>
</svg>
