<svg width="20" height="20" fill="none" xmlns="http://www.w3.org/2000/svg"><path d="M18.976 6.7l-5.462-.833-2.44-5.171a1.175 1.175 0 00-2.146 0l-2.442 5.17-5.462.832c-.98.149-1.372 1.41-.662 2.133l3.951 4.023-.935 5.683C3.246 19.35 3.865 20 4.558 20c.184 0 .373-.046.555-.146l4.886-2.683 4.886 2.683c.181.1.37.145.553.145.694 0 1.314-.649 1.181-1.46l-.934-5.684 3.952-4.023c.71-.722.318-1.984-.661-2.132zm-4.543 4.812l-.676.688.16.972.728 4.432-3.81-2.093-.836-.459L10 2.662l1.905 4.034.417.884.933.143 4.262.65-3.084 3.14z" fill="#FBBC04"/></svg>