<svg width="25" height="25" viewBox="0 0 25 25" fill="none" xmlns="http://www.w3.org/2000/svg">
<path d="M12.5 0.390625C19.1895 0.390625 24.6094 5.81055 24.6094 12.5C24.6094 19.1895 19.1895 24.6094 12.5 24.6094C5.81055 24.6094 0.390625 19.1895 0.390625 12.5C0.390625 5.81055 5.81055 0.390625 12.5 0.390625ZM18.0615 11.6699L11.4453 5.05371C10.9863 4.59473 10.2441 4.59473 9.79004 5.05371L8.95996 5.88379C8.50098 6.34277 8.50098 7.08496 8.95996 7.53906L13.9209 12.5L8.95996 17.4609C8.50098 17.9199 8.50098 18.6621 8.95996 19.1162L9.79004 19.9463C10.249 20.4053 10.9912 20.4053 11.4453 19.9463L18.0615 13.3301C18.5205 12.8711 18.5205 12.1289 18.0615 11.6699Z" fill="white"/>
</svg>
