<svg width="25" height="25" viewBox="0 0 25 25" fill="none" xmlns="http://www.w3.org/2000/svg">
<path d="M12.5 24.6094C5.81055 24.6094 0.390625 19.1895 0.390625 12.5C0.390625 5.81055 5.81055 0.390625 12.5 0.390625C19.1895 0.390625 24.6094 5.81055 24.6094 12.5C24.6094 19.1895 19.1895 24.6094 12.5 24.6094ZM6.93848 13.3301L13.5547 19.9463C14.0137 20.4053 14.7559 20.4053 15.21 19.9463L16.04 19.1162C16.499 18.6572 16.499 17.915 16.04 17.4609L11.0791 12.5L16.04 7.53906C16.499 7.08008 16.499 6.33789 16.04 5.88379L15.21 5.05371C14.751 4.59473 14.0088 4.59473 13.5547 5.05371L6.93848 11.6699C6.47949 12.1289 6.47949 12.8711 6.93848 13.3301Z" fill="white"/>
</svg>
